<?xml version="1.0" standalone="no"?>
<!DOCTYPE svg PUBLIC "-//W3C//DTD SVG 20010904//EN"
 "http://www.w3.org/TR/2001/REC-SVG-20010904/DTD/svg10.dtd">
<svg version="1.0" xmlns="http://www.w3.org/2000/svg"
 width="1343.000000pt" height="1343.000000pt" viewBox="0 0 1343.000000 1343.000000"
 preserveAspectRatio="xMidYMid meet">
<metadata>
Created by potrace 1.11, written by Peter Selinger 2001-2013
</metadata>
<g transform="translate(0.000000,1343.000000) scale(0.100000,-0.100000)"
fill="#000000" stroke="none">
<path d="M1328 13367 l-58 -60 0 -5617 0 -5617 61 -62 61 -61 5317 0 5317 0
59 60 60 60 0 395 0 395 -2265 2265 -2265 2265 0 300 0 299 2265 2266 2265
2266 0 392 1 392 -60 63 -59 62 -5321 -1 -5321 -1 -57 -61z"/>
<path d="M1284 1339 c-12 -13 -14 -114 -14 -665 0 -492 3 -653 12 -662 15 -15
221 -16 249 -2 18 10 19 24 19 245 l0 235 53 0 52 -1 194 -244 194 -245 112 0
c106 0 112 1 123 23 11 22 15 52 13 93 -1 12 -20 46 -43 76 -24 31 -54 70 -68
88 -14 18 -84 109 -157 202 -73 94 -133 176 -133 183 0 7 8 23 18 36 11 13 97
136 192 272 163 235 173 252 175 299 4 74 -11 83 -137 83 l-101 1 -39 -51
c-21 -27 -42 -54 -46 -60 -4 -5 -23 -32 -42 -60 -19 -27 -40 -56 -47 -65 -7
-8 -64 -87 -128 -175 -108 -147 -119 -159 -148 -160 l-32 0 -5 272 c-4 203 -8
275 -18 285 -20 20 -229 18 -248 -3z"/>
<path d="M2724 1345 c-4 -12 -93 -371 -99 -400 -2 -11 -19 -83 -39 -160 -19
-77 -62 -252 -95 -390 -34 -137 -64 -261 -68 -275 -11 -45 -13 -55 -17 -88
l-4 -32 143 0 143 0 12 63 c6 34 22 105 34 157 l23 95 242 0 241 0 11 -32 c5
-17 12 -44 15 -58 3 -15 12 -57 20 -94 9 -36 18 -77 20 -90 3 -14 7 -28 10
-33 3 -4 67 -8 143 -8 l139 0 -3 28 c-2 26 -44 207 -66 286 -6 22 -12 46 -14
55 -2 9 -35 147 -75 306 -39 160 -74 299 -76 310 -3 11 -24 99 -48 195 l-43
175 -272 0 c-175 0 -275 -3 -277 -10z m346 -233 c0 -5 9 -51 20 -103 11 -52
22 -103 25 -114 2 -11 7 -31 10 -45 3 -14 7 -36 10 -50 3 -14 16 -71 28 -127
16 -69 20 -103 13 -106 -9 -3 -359 -1 -362 2 0 0 8 38 18 84 10 45 27 123 38
172 10 50 28 132 40 184 11 52 20 98 20 103 0 4 32 8 70 8 39 0 70 -4 70 -8z"/>
<path d="M3771 1346 c-17 -7 -21 -19 -22 -55 0 -25 0 -320 0 -654 -1 -461 2
-611 11 -622 17 -21 795 -22 823 -1 14 11 17 30 17 118 0 87 -3 107 -17 120
-15 13 -59 15 -278 15 l-260 0 -3 530 c-2 478 -4 532 -19 544 -19 16 -219 20
-252 5z"/>
<path d="M4794 1343 c-16 -12 -17 -61 -18 -659 -1 -517 2 -650 12 -665 12 -17
27 -19 125 -19 77 1 117 5 130 14 15 12 17 36 17 245 l0 231 50 0 50 0 196
-245 195 -245 108 0 c129 0 141 7 141 87 0 45 -5 57 -47 111 -27 33 -61 77
-78 99 -229 293 -276 358 -272 372 2 9 89 137 192 286 188 269 188 269 187
323 0 38 -5 57 -17 66 -23 17 -227 15 -233 -2 -2 -7 -9 -18 -16 -25 -11 -12
-120 -158 -161 -217 -11 -16 -67 -94 -125 -173 -97 -134 -107 -145 -135 -143
l-30 3 -3 262 c-2 214 -5 267 -17 285 -14 19 -24 21 -125 21 -72 0 -115 -4
-126 -12z"/>
<path d="M6014 1348 c-4 -7 -8 -1131 -5 -1321 l1 -27 388 2 387 3 0 80 0 80
-293 1 c-161 1 -296 5 -300 9 -4 3 -8 264 -8 578 -1 315 -2 579 -3 588 -1 13
-15 16 -81 16 -44 1 -83 -3 -86 -9z"/>
<path d="M7185 1337 c-3 -12 -16 -69 -30 -127 -14 -58 -28 -118 -31 -135 -3
-16 -7 -37 -10 -45 -3 -8 -8 -26 -11 -40 -5 -28 -115 -510 -138 -605 -34 -142
-85 -367 -85 -376 0 -6 35 -9 86 -7 l87 3 12 47 c6 27 11 48 9 48 -2 0 3 18
11 40 8 22 14 43 14 45 -1 6 30 151 37 178 5 16 24 17 252 15 l246 -3 41 -185
42 -185 88 -3 88 -3 -6 33 c-4 18 -15 69 -26 113 -10 44 -35 150 -55 235 -19
85 -47 205 -61 265 -43 188 -146 639 -151 665 -2 14 -6 30 -9 37 -2 8 -61 11
-199 12 -194 0 -196 0 -201 -22z m279 -210 c15 -72 37 -170 51 -232 2 -11 18
-81 35 -155 17 -74 33 -151 36 -171 l5 -37 -205 1 c-113 0 -206 4 -206 9 0 4
9 48 19 96 11 48 22 98 25 112 3 14 21 95 40 180 19 85 40 183 47 217 l13 62
45 3 c75 5 75 4 95 -85z"/>
<path d="M8074 1346 c-2 -6 -3 -310 -2 -676 l3 -665 78 -3 c42 -2 78 1 79 5 1
4 2 245 3 536 1 290 5 530 8 534 4 3 7 -1 7 -10 0 -20 27 -79 175 -382 111
-227 245 -503 296 -612 17 -34 38 -64 47 -66 38 -10 191 -7 197 4 10 14 9
1324 0 1339 -9 14 -142 11 -153 -4 -5 -6 -8 -248 -8 -538 1 -291 -2 -528 -5
-528 -4 0 -10 12 -13 26 -8 31 -40 97 -425 887 l-82 167 -100 -1 c-65 -1 -102
-5 -105 -13z"/>
<path d="M9241 1347 c-6 -8 -9 -263 -8 -677 l2 -665 300 0 300 0 55 27 c107
51 161 125 187 253 9 43 7 752 -2 800 -24 128 -116 226 -247 260 -72 18 -571
20 -587 2z m578 -168 c52 -23 88 -70 100 -131 17 -85 11 -716 -7 -770 -34
-103 -72 -117 -323 -118 l-194 -2 -1 521 -2 520 195 -1 c157 -2 202 -5 232
-19z"/>
<path d="M10316 1353 c-3 -4 -6 -47 -6 -97 l0 -91 388 0 c213 0 393 4 399 8 9
6 12 35 10 95 l-2 87 -391 2 c-216 1 -395 -1 -398 -4z"/>
<path d="M11306 1353 c-3 -4 -6 -42 -6 -85 0 -67 2 -78 18 -79 9 -1 82 -2 162
-3 l145 -1 3 -593 2 -592 79 0 c50 0 83 4 87 12 4 6 8 273 8 592 l1 581 162 0
c104 0 166 4 173 11 7 7 10 41 8 85 l-3 74 -416 2 c-230 1 -420 -1 -423 -4z"/>
<path d="M10319 785 c-1 0 -2 -42 -3 -93 -2 -86 0 -93 19 -97 41 -8 710 -2
721 6 16 13 17 166 1 176 -8 5 -663 12 -738 8z"/>
<path d="M10319 185 c-7 0 -3 -163 4 -172 13 -18 772 -19 783 -2 8 14 7 159
-1 168 -4 4 -734 10 -786 6z"/>
</g>
</svg>
